<svg width="33" height="33" viewBox="0 0 200 174" fill="none" xmlns="http://www.w3.org/2000/svg">
<path d="M48.0251 17.8209L4.87793 63.6098H43.9023L63.0301 42.888C69.4942 35.8852 78.5908 31.9024 88.121 31.9024H119.512C147.8 31.9024 170.732 54.8342 170.732 83.1219V85.561V88C170.732 114.941 148.892 136.781 121.951 136.781L87.8048 173.366H120.732C164.51 173.366 200 137.876 200 94.0976V75.8049C200 34.0468 166.148 0.195129 124.39 0.195129H91.4633H88.8523C73.3962 0.195129 58.6249 6.57214 48.0251 17.8209Z" fill="#46D69C"/>
<path d="M103.659 53.8536H59.7563L20.7319 95.3171H65.8539L103.659 53.8536Z" fill="#46D69C"/>
<path d="M114.634 88H78.0488L0 173.366H37.8049L114.634 88Z" fill="#46D69C"/>
<path d="M112.195 136.781H80.4877L46.3413 173.366H79.2681L112.195 136.781Z" fill="#46D69C"/>
</svg>
